<?xml version="1.0" encoding="UTF-8"?>
<svg xmlns="http://www.w3.org/2000/svg" xmlns:xlink="http://www.w3.org/1999/xlink" width="16px" height="16px" viewBox="0 0 16 16" version="1.1">
<g id="surface1">
<path style=" stroke:none;fill-rule:nonzero;fill:rgb(0%,0%,0%);fill-opacity:1;" d="M 15.609375 2.726562 L 13.410156 0.421875 C 12.765625 -0.226562 11.921875 -0.046875 11.484375 0.421875 L 11.085938 0.835938 C 10.707031 0.605469 10.1875 0.652344 9.867188 0.984375 L 3.617188 7.53125 L 2.515625 11.339844 L 0 13.976562 L 3.363281 16 L 5.179688 14.097656 L 8.804688 12.960938 L 15.070312 6.394531 C 15.398438 6.054688 15.441406 5.523438 15.199219 5.132812 L 15.609375 4.703125 C 16.128906 4.160156 16.128906 3.269531 15.609375 2.726562 Z M 3.25 15.144531 L 1.070312 13.832031 L 2.816406 12.003906 L 4.53125 13.800781 Z M 5.089844 13.410156 L 3.199219 11.425781 L 4.234375 8.175781 L 8.195312 12.324219 Z M 14.585938 5.925781 L 8.804688 11.984375 L 4.550781 7.53125 L 10.351562 1.453125 C 10.46875 1.332031 10.667969 1.332031 10.785156 1.453125 L 14.585938 5.4375 C 14.714844 5.570312 14.714844 5.792969 14.585938 5.925781 Z M 15.125 4.234375 L 14.75 4.628906 L 11.574219 1.304688 L 11.96875 0.890625 C 12.226562 0.621094 12.667969 0.621094 12.925781 0.890625 L 15.125 3.195312 C 15.398438 3.480469 15.398438 3.949219 15.125 4.234375 Z M 15.125 4.234375 "/>
</g>
</svg>
